<?xml version="1.0" encoding="UTF-8" standalone="no"?>
<svg width="963px" height="73px" viewBox="0 0 963 73" version="1.1" xmlns="http://www.w3.org/2000/svg" xmlns:xlink="http://www.w3.org/1999/xlink" xmlns:sketch="http://www.bohemiancoding.com/sketch/ns">
    <!-- Generator: Sketch 3.3.3 (12072) - http://www.bohemiancoding.com/sketch -->
    <title>Imported Layers</title>
    <desc>Created with Sketch.</desc>
    <defs></defs>
    <g id="Page-1" stroke="none" stroke-width="1" fill="none" fill-rule="evenodd" sketch:type="MSPage">
        <g id="ABOUT_" sketch:type="MSArtboardGroup" transform="translate(-238.000000, -1984.000000)" stroke="#EF4343" stroke-width="3">
            <path d="M240,2046.8455 L240,2056.01739 M539.998967,2015.26189 L270,2015.26189 M240.053895,2047.63689 C240.012249,2026.83467 251.290947,2015.68122 275.161416,2015.21461 M559.346411,2046.8455 L559.346411,2056.01739 M688.082105,2015.26189 L502.061971,2015.26189 M559.400306,2047.63689 C559.35866,2026.83467 570.637359,2015.68328 594.507828,2015.21667 M1199.39793,2047.45394 L1199.39793,2056.94239 M897.637091,2015.26394 L1167.63606,2015.26394 M1199.34404,2048.25767 C1199.38813,2027.10806 1188.08249,2015.68944 1164.15567,2015.21667 M879.065684,2047.456 L879.065684,2056.94239 M761.881148,2015.26394 L942.266833,2015.26394 M879.011789,2048.25972 C879.053435,2027.10806 867.747789,2015.6915 843.823426,2015.21667 M720.426297,1985 C718.782507,2003.81244 710.1569,2015.31739 686.514258,2015.30094 M762.398048,2015.23928 C739.093474,2015.27422 720.578182,2009.4015 720.578182,1985.60639" id="Imported-Layers" sketch:type="MSShapeGroup"></path>
        </g>
    </g>
</svg>