<?xml version="1.0" encoding="UTF-8" standalone="no"?>
<svg width="295px" height="10px" viewBox="0 0 295 10" version="1.1" xmlns="http://www.w3.org/2000/svg" xmlns:xlink="http://www.w3.org/1999/xlink" xmlns:sketch="http://www.bohemiancoding.com/sketch/ns">
    <!-- Generator: Sketch 3.3.3 (12072) - http://www.bohemiancoding.com/sketch -->
    <title>Group Copy 7</title>
    <desc>Created with Sketch.</desc>
    <defs></defs>
    <g id="Page-1" stroke="none" stroke-width="1" fill="none" fill-rule="evenodd" sketch:type="MSPage">
        <g id="COMMUNITY_blog_" sketch:type="MSArtboardGroup" transform="translate(-573.500000, -989.000000)">
            <g id="Group-Copy-7" sketch:type="MSLayerGroup" transform="translate(573.071068, 989.000000)">
                <circle id="Oval-2-Copy-8" fill="#FFFFFF" sketch:type="MSShapeGroup" cx="102.857864" cy="5" r="5"></circle>
                <rect id="Rectangle-17-Copy-12" fill="#FFFFFF" sketch:type="MSShapeGroup" x="192.857864" y="0" width="10" height="10"></rect>
                <rect id="Rectangle-17-Copy-11" fill="#FFFFFF" sketch:type="MSShapeGroup" x="0.857864376" y="4" width="12" height="3"></rect>
                <path d="M277.857864,9 C280.067003,9 281.857864,7.209139 281.857864,5 C281.857864,2.790861 280.067003,1 277.857864,1 C275.648725,1 273.857864,2.790861 273.857864,5 C273.857864,7.209139 275.648725,9 277.857864,9 Z M289.857864,9 C292.067003,9 293.857864,7.209139 293.857864,5 C293.857864,2.790861 292.067003,1 289.857864,1 C287.648725,1 285.857864,2.790861 285.857864,5 C285.857864,7.209139 287.648725,9 289.857864,9 Z" id="Oval-2-Copy-5" stroke="#FFFFFF" stroke-width="2" sketch:type="MSShapeGroup"></path>
            </g>
        </g>
    </g>
</svg>