<?xml version="1.0" encoding="UTF-8" standalone="no"?>
<svg width="32px" height="32px" viewBox="0 0 32 32" version="1.1" xmlns="http://www.w3.org/2000/svg" xmlns:xlink="http://www.w3.org/1999/xlink" xmlns:sketch="http://www.bohemiancoding.com/sketch/ns">
    <!-- Generator: Sketch 3.3.3 (12072) - http://www.bohemiancoding.com/sketch -->
    <title>map marker</title>
    <desc>Created with Sketch.</desc>
    <defs></defs>
    <g id="Page-1" stroke="none" stroke-width="1" fill="none" fill-rule="evenodd" sketch:type="MSPage">
        <g id="STORIES_open_one" sketch:type="MSArtboardGroup" transform="translate(-701.000000, -2810.000000)">
            <g id="Group-Copy-3" sketch:type="MSLayerGroup" transform="translate(0.000000, 2149.000000)">
                <g id="Group-Copy" transform="translate(0.000000, 457.000000)" sketch:type="MSShapeGroup">
                    <g id="map-marker" transform="translate(717.000000, 220.000000) scale(-1, 1) translate(-717.000000, -220.000000) translate(695.000000, 199.000000)">
                        <path d="M34.7551511,12.8949717 C31.5311914,6.67971046 24.1790171,3.522942 17.3674358,4.97101587 C10.7022992,6.38759807 6.93339116,12.822758 7.02920624,19.311128 C7.11685526,25.2380775 10.0354044,30.3576458 14.5550454,33.5763116 C14.4347321,34.220805 14.6938684,34.9478282 15.4941421,35.20682 C16.8589626,35.6487893 18.2569917,35.9675067 19.6544765,36.1472265 C20.2892514,36.3568089 20.9381808,36.5392435 21.6034423,36.6858426 C22.1587343,36.8085515 22.6133115,36.6217733 22.9198109,36.2981693 C27.2946404,36.1227933 31.3858356,34.3489435 34.0806347,30.2946624 C37.4494059,25.2261324 37.5234448,18.2317238 34.7551511,12.8949717 L34.7551511,12.8949717 Z M32.6581074,27.1085741 C30.2561975,32.3454217 25.3277092,33.9585554 20.2407994,33.3879046 C14.9949237,31.5456419 11.0490844,27.3887414 10.0484701,21.6925498 C9.15020373,16.5784112 10.9745011,10.5575296 16.0336463,8.31293363 C21.3323292,5.96191756 28.2478916,8.14678793 31.4702182,12.8471912 C34.2700873,16.9307921 34.7192205,22.6139526 32.6581074,27.1085741 L32.6581074,27.1085741 Z" id="Fill-2" fill="#F04A4A" transform="translate(21.877644, 20.673514) rotate(242.000000) translate(-21.877644, -20.673514) "></path>
                        <path d="M27.078,16.836 L24.242,14 L19.976,18.266 L15.711,14 L12.875,16.836 L17.14,21.102 L12.875,25.368 L15.711,28.204 L19.976,23.938 L24.242,28.204 L27.078,25.368 L22.812,21.102 L27.078,16.836" id="Imported-Layers-Copy-22" fill="#EF4949" transform="translate(20.375000, 21.500000) scale(-1, 1) translate(-20.375000, -21.500000) "></path>
                    </g>
                </g>
            </g>
        </g>
    </g>
</svg>