<?xml version="1.0" encoding="UTF-8" standalone="no"?>
<svg width="20px" height="17px" viewBox="0 0 20 17" version="1.1" xmlns="http://www.w3.org/2000/svg" xmlns:xlink="http://www.w3.org/1999/xlink" xmlns:sketch="http://www.bohemiancoding.com/sketch/ns">
    <!-- Generator: Sketch 3.3.3 (12072) - http://www.bohemiancoding.com/sketch -->
    <title>Rectangle 255 Copy 3 + Rectangle 255 Copy</title>
    <desc>Created with Sketch.</desc>
    <defs></defs>
    <g id="Page-1" stroke="none" stroke-width="1" fill="none" fill-rule="evenodd" sketch:type="MSPage">
        <g id="Rectangle-255-Copy-3-+-Rectangle-255-Copy" sketch:type="MSLayerGroup" fill="#404041" stroke="#404041">
            <g sketch:type="MSShapeGroup">
                <path d="M11.3492424,7.03553391 L11.3137085,7 L9.89949494,8.41421356 L9.93502884,8.44974747 L9.89949494,8.48528137 L11.3137085,9.89949494 L11.3492424,9.86396103 L18.3847763,16.8994949 L19.7989899,15.4852814 L12.763456,8.44974747 L19.7989899,1.41421356 L18.3847763,-8.2600593e-13 L11.3492424,7.03553391 Z" id="Rectangle-255-Copy-3" transform="translate(14.849242, 8.449747) rotate(-180.000000) translate(-14.849242, -8.449747) "></path>
                <path d="M1.44974747,7.03553391 L1.41421356,7 L1.23012711e-13,8.41421356 L0.0355339059,8.44974747 L1.22568622e-13,8.48528137 L1.41421356,9.89949494 L1.44974747,9.86396103 L8.48528137,16.8994949 L9.89949494,15.4852814 L2.86396103,8.44974747 L9.89949494,1.41421356 L8.48528137,-8.2600593e-13 L1.44974747,7.03553391 Z" id="Rectangle-255-Copy"></path>
            </g>
        </g>
    </g>
</svg>